<?xml version="1.0" encoding="utf-8"?><svg xmlns="http://www.w3.org/2000/svg" width="23" height="15"><defs><clipPath id="a" clipPathUnits="userSpaceOnUse"><path d="M0 0h612v792H0Z"/></clipPath></defs><g clip-path="url(#a)" transform="matrix(1.93919 0 0 -1.93919 -670.22 801.91)"><path fill="#231f20" d="M347.234 407.747a.238.238 0 0 0-.232.282l.34 1.72-1.288 1.196a.237.237 0 0 0 .134.408l1.743.209.737 1.593a.239.239 0 0 0 .214.136.236.236 0 0 0 .215-.136l.737-1.593 1.743-.21a.235.235 0 0 0 .132-.407l-1.286-1.195.34-1.721a.24.24 0 0 0-.093-.237.24.24 0 0 0-.254-.017l-1.534.856-1.533-.856a.244.244 0 0 0-.115-.028"/><path fill="#fff" d="m348.883 413.055.794-1.712 1.872-.225-1.382-1.284.364-1.85-1.648.917-1.648-.918.364 1.851-1.382 1.284 1.872.225zm0 .473a.473.473 0 0 1-.43-.275l-.681-1.472-1.612-.195a.471.471 0 0 1-.265-.815l1.19-1.104-.313-1.594a.468.468 0 0 1 .463-.562c.079 0 .158.018.23.06l1.418.79 1.417-.79a.467.467 0 0 1 .23-.06.468.468 0 0 1 .463.562l-.312 1.594 1.19 1.104a.471.471 0 0 1-.265.815l-1.612.195-.682 1.472a.473.473 0 0 1-.43.275"/><path fill="#231f20" d="M355.864 406.03a.244.244 0 0 0-.115.027l-1.533.855-1.533-.855a.243.243 0 0 0-.253.017.236.236 0 0 0-.094.237l.34 1.721-1.287 1.194a.238.238 0 0 0-.065.247c.028.088.105.15.197.16l1.742.211.738 1.592a.238.238 0 0 0 .43 0l.738-1.592 1.74-.21a.23.23 0 0 0 .197-.16.239.239 0 0 0-.063-.248l-1.286-1.194.34-1.72a.237.237 0 0 0-.233-.283"/><path fill="#fff" d="m354.216 411.337.794-1.712 1.872-.225-1.382-1.284.364-1.851-1.648.918-1.648-.918.364 1.85-1.382 1.285 1.872.225zm0 .472a.472.472 0 0 1-.43-.274l-.681-1.472-1.612-.195a.471.471 0 0 1-.265-.815l1.19-1.105-.313-1.593a.468.468 0 0 1 .463-.562c.079 0 .158.018.23.059l1.418.79 1.418-.79a.461.461 0 0 1 .23-.06.468.468 0 0 1 .463.562l-.313 1.594 1.19 1.105a.473.473 0 0 1-.265.815l-1.612.195-.682 1.472a.472.472 0 0 1-.43.274"/></g></svg>